<svg width="20" height="20" viewBox="0 0 20 20" fill="none" xmlns="http://www.w3.org/2000/svg">
<path fill-rule="evenodd" clip-rule="evenodd" d="M9.66933 0.087785C9.77004 0.030258 9.88402 0 10 0C10.116 0 10.23 0.030258 10.3307 0.087785L19.664 5.42112C19.766 5.4794 19.8509 5.56362 19.9099 5.66524C19.9689 5.76686 20 5.88228 20 5.99979V6.95978C20 9.90108 19.0418 12.7623 17.2704 15.1104C15.4991 17.4584 13.0109 19.1655 10.1827 19.9731C10.0633 20.0071 9.93674 20.0071 9.81733 19.9731C6.98909 19.1655 4.50095 17.4584 2.72956 15.1104C0.958165 12.7623 -3.66525e-05 9.90108 1.05153e-09 6.95978L1.05153e-09 5.99979C3.79038e-05 5.88228 0.031135 5.76686 0.0901407 5.66524C0.149146 5.56362 0.233964 5.4794 0.336 5.42112L9.66933 0.087785ZM9.42933 14.2811L15.1867 7.08245L14.1467 6.25045L9.23733 12.3851L5.76 9.48779L4.90667 10.5118L9.42933 14.2811Z" fill="#0BBB31"/>
</svg>
