<svg width="36" height="36" viewBox="0 0 36 36" fill="none" xmlns="http://www.w3.org/2000/svg">
<rect x="4" y="7" width="28" height="26" rx="9" fill="#D9D9D9"/>
<path d="M4.875 13.875H31.125M11.0415 7.125V4.125M24.9165 7.125V4.125M25.875 7.125H10.125C8.73261 7.125 7.39726 7.67812 6.41269 8.66269C5.42812 9.64726 4.875 10.9826 4.875 12.375V26.625C4.875 28.0174 5.42812 29.3527 6.41269 30.3373C7.39726 31.3219 8.73261 31.875 10.125 31.875H25.875C27.2674 31.875 28.6027 31.3219 29.5873 30.3373C30.5719 29.3527 31.125 28.0174 31.125 26.625V12.375C31.125 10.9826 30.5719 9.64726 29.5873 8.66269C28.6027 7.67812 27.2674 7.125 25.875 7.125Z" stroke="white" stroke-width="1.5" stroke-linecap="round" stroke-linejoin="round"/>
</svg>
